# Blender v2.82 (sub 7) OBJ File: 'HandleBase.blend'
# www.blender.org
mtllib HandleBase.mtl
o Cube
v -1.700000 -0.190000 -0.560000
v 1.700000 -0.190000 -0.560000
v 2.000000 1.000000 -1.000000
v 2.000000 -1.000000 -1.000000
v 2.000000 -1.000000 1.000000
v -2.000000 1.000000 -1.000000
v -2.000000 -1.000000 -1.000000
v -2.000000 -1.000000 1.000000
v -2.000000 -0.590000 0.610000
v 2.000000 -0.590000 0.610000
v 2.000000 -0.590000 1.000000
v -2.000000 -0.590000 1.000000
v 1.700000 1.000000 -0.560000
v 1.700000 -0.190000 0.610000
v -1.700000 1.000000 -0.560000
v -1.700000 -0.190000 0.610000
v -2.000000 0.126927 -0.369552
v 1.700000 0.126927 -0.369552
v -1.700000 0.126927 -0.369552
v 2.000000 0.126927 -0.369552
v -2.000000 0.201964 -0.392314
v 1.700000 0.201964 -0.392314
v -1.700000 0.201964 -0.392314
v 2.000000 0.201964 -0.392314
v -2.000000 -0.002843 -0.282843
v 1.700000 -0.002843 -0.282843
v -1.700000 -0.002843 -0.282843
v 2.000000 -0.002843 -0.282843
v 1.700000 0.057772 0.332588
v -2.000000 0.057772 0.332588
v -1.700000 0.057772 0.332588
v 2.000000 0.057772 0.332588
v 1.700001 0.126927 0.369552
v -2.000000 0.126927 0.369552
v -1.700000 0.126927 0.369552
v 2.000000 0.126927 0.369552
v -2.000000 -0.052588 -0.222228
v 1.700000 -0.052588 -0.222228
v -1.700000 -0.052588 -0.222228
v 2.000000 -0.052588 -0.222228
v 1.700001 0.201964 0.392314
v -2.000000 0.201964 0.392314
v -1.700000 0.201964 0.392314
v 2.000000 0.201964 0.392314
v 1.700001 0.433073 0.369552
v -2.000000 0.433074 0.369552
v -1.700000 0.433074 0.369552
v 2.000000 0.433073 0.369552
v 1.700000 0.433073 -0.369552
v -2.000000 0.433073 -0.369552
v -1.700000 0.433073 -0.369552
v 2.000000 0.433073 -0.369552
v 1.700000 0.502228 0.332588
v -2.000000 0.502228 0.332588
v -1.700000 0.502228 0.332588
v 2.000000 0.502228 0.332588
v -2.000000 -0.112314 0.078036
v 1.700000 -0.112314 0.078036
v -1.700000 -0.112314 0.078036
v 2.000000 -0.112314 0.078036
v 1.700000 -0.002843 0.282843
v -2.000000 -0.002843 0.282843
v -1.700000 -0.002843 0.282843
v 2.000000 -0.002843 0.282843
v 1.700000 -0.089552 0.153073
v -2.000000 -0.089552 0.153073
v -1.700000 -0.089552 0.153073
v 2.000000 -0.089552 0.153073
v -2.000000 -0.120000 -0.000000
v 1.700000 -0.120000 -0.000000
v -1.700000 -0.120000 -0.000000
v 2.000000 -0.120000 -0.000000
v 1.700000 0.562842 -0.282843
v -2.000000 0.562842 -0.282843
v -1.700000 0.562842 -0.282843
v 2.000000 0.562842 -0.282843
v 1.700000 0.502228 -0.332588
v -2.000000 0.502228 -0.332588
v -1.700000 0.502228 -0.332588
v 2.000000 0.502228 -0.332588
v 1.700001 0.280000 0.400000
v -2.000000 0.280000 0.400000
v -1.700000 0.280000 0.400000
v 2.000000 0.280000 0.400000
v -2.000000 0.280000 -0.400000
v 1.700000 0.280000 -0.400000
v -1.700000 0.280000 -0.400000
v 2.000000 0.280000 -0.400000
v -2.000000 -0.112314 -0.078036
v 1.700000 -0.112314 -0.078036
v -1.700000 -0.112314 -0.078036
v 2.000000 -0.112314 -0.078036
v -2.000000 0.057772 -0.332588
v 1.700000 0.057772 -0.332588
v -1.700000 0.057772 -0.332588
v 2.000000 0.057772 -0.332588
v -2.000000 -0.089552 -0.153073
v 1.700000 -0.089552 -0.153073
v -1.700000 -0.089552 -0.153073
v 2.000000 -0.089552 -0.153073
v 1.700001 0.358036 0.392314
v -2.000000 0.358036 0.392314
v -1.700000 0.358036 0.392314
v 2.000000 0.358036 0.392314
v 1.700000 -0.052588 0.222228
v -2.000000 -0.052588 0.222228
v -1.700000 -0.052588 0.222228
v 2.000000 -0.052588 0.222228
v -2.000000 0.358036 -0.392314
v 1.700000 0.358035 -0.392314
v -1.700000 0.358036 -0.392314
v 2.000000 0.358035 -0.392314
v 1.700000 1.000000 -0.270000
v 2.000000 1.000000 -0.270000
v 2.000000 0.573382 -0.270000
v -1.700000 0.573382 -0.270000
v -1.700000 1.000000 -0.270000
v 1.700000 0.573382 -0.270000
v -2.000000 0.573383 -0.270000
v -2.000000 1.000000 -0.270000
v 1.700000 0.510000 0.326210
v 2.000000 0.510000 0.326210
v 2.000000 0.510000 0.467083
v 1.700000 0.510000 0.610000
v 2.000000 0.510000 0.610000
v -1.700000 0.510000 0.326210
v -1.700000 0.510000 0.610000
v -2.000000 0.510000 0.610000
v -2.000000 0.510000 0.467083
v -2.000000 0.510000 0.326210
v -0.150000 -0.330000 0.150000
v -0.150000 0.330000 0.150000
v -0.150000 -0.330000 -0.150000
v -0.150000 0.330000 -0.150000
v 0.150000 -0.330000 0.150000
v 0.150000 0.330000 0.150000
v 0.150000 -0.330000 -0.150000
v 0.150000 0.330000 -0.150000
v -0.150000 0.330000 0.150000
v -0.150000 0.330000 -0.150000
v 0.150000 0.330000 0.150000
v 0.150000 0.330000 -0.150000
v -0.150000 0.392030 0.150000
v -0.150000 0.392030 -0.150000
v 0.150000 0.392030 0.150000
v 0.150000 0.392030 -0.150000
v -0.150000 0.330000 0.150000
v -0.150000 0.330000 -0.150000
v 0.150000 0.330000 -0.150000
v 0.150000 0.330000 0.150000
v -0.150000 0.330000 -0.150000
v 0.150000 0.330000 -0.150000
v -0.150000 0.330000 -0.150000
v 0.150000 0.330000 -0.150000
v -0.150000 0.392030 0.150000
v -0.150000 0.392030 -0.150000
v 0.150000 0.392030 0.150000
v 0.150000 0.392030 -0.150000
v -0.150000 0.330000 -0.150000
v 0.150000 0.330000 -0.150000
v -0.150000 0.330000 -0.150000
v 0.150000 0.330000 -0.150000
v -0.150000 0.330000 -0.150000
v 0.150000 0.330000 -0.150000
v -0.150000 0.392030 0.150000
v -0.150000 0.392030 -0.150000
v 0.150000 0.392030 0.150000
v 0.150000 0.392030 -0.150000
v -0.150000 0.330000 -0.150000
v 0.150000 0.330000 -0.150000
v -0.150000 0.330000 -0.150000
v 0.150000 0.330000 -0.150000
v -0.150000 0.330000 -0.150000
v 0.150000 0.330000 -0.150000
v -0.150000 0.392030 0.150000
v -0.150000 0.392030 -0.150000
v 0.150000 0.392030 0.150000
v 0.150000 0.392030 -0.150000
v -0.150000 0.330000 -0.150000
v 0.150000 0.330000 -0.150000
vt 0.375000 0.250000
vt 0.375000 0.500000
vt 0.622917 0.500000
vt 0.622917 0.250000
vt 0.375000 0.743750
vt 0.472917 0.700000
vt 0.456659 0.698399
vt 0.441026 0.693657
vt 0.426619 0.685956
vt 0.413991 0.675592
vt 0.403628 0.662964
vt 0.395927 0.648557
vt 0.391185 0.632924
vt 0.389583 0.616667
vt 0.391185 0.600409
vt 0.395927 0.584776
vt 0.403628 0.570369
vt 0.413991 0.557741
vt 0.426619 0.547378
vt 0.441026 0.539677
vt 0.456659 0.534935
vt 0.472917 0.533333
vt 0.125000 0.500000
vt 0.125000 0.743750
vt 0.625000 0.500000
vt 0.875000 0.500000
vt 0.875000 0.591250
vt 0.856250 0.591250
vt 0.856250 0.555000
vt 0.643750 0.555000
vt 0.643750 0.591250
vt 0.625000 0.591250
vt 0.375000 0.750000
vt 0.426250 0.750000
vt 0.426250 1.000000
vt 0.375000 1.000000
vt 0.375000 0.000000
vt 0.426250 0.000000
vt 0.426250 0.048750
vt 0.563750 0.048750
vt 0.563750 0.066615
vt 0.535000 0.075000
vt 0.525245 0.075961
vt 0.515866 0.078806
vt 0.507221 0.083427
vt 0.499645 0.089645
vt 0.493427 0.097221
vt 0.488806 0.105866
vt 0.485961 0.115245
vt 0.485000 0.125000
vt 0.485961 0.134755
vt 0.488806 0.144134
vt 0.493427 0.152779
vt 0.499645 0.160355
vt 0.507222 0.166573
vt 0.515866 0.171194
vt 0.525245 0.174039
vt 0.535000 0.175000
vt 0.625000 0.250000
vt 0.375000 0.250000
vt 0.125000 0.500000
vt 0.375000 0.500000
vt 0.125000 0.750000
vt 0.535000 0.575000
vt 0.525245 0.575961
vt 0.515866 0.578806
vt 0.507221 0.583427
vt 0.499645 0.589645
vt 0.493427 0.597221
vt 0.488806 0.605866
vt 0.485961 0.615245
vt 0.485000 0.625000
vt 0.485961 0.634754
vt 0.488806 0.644134
vt 0.493427 0.652779
vt 0.499645 0.660355
vt 0.507222 0.666573
vt 0.515866 0.671194
vt 0.525246 0.674039
vt 0.535000 0.675000
vt 0.563750 0.683385
vt 0.563750 0.701250
vt 0.426250 0.701250
vt 0.375000 0.261364
vt 0.375000 0.488636
vt 0.546875 0.488636
vt 0.546875 0.471591
vt 0.437500 0.471591
vt 0.437500 0.278409
vt 0.546875 0.278409
vt 0.546875 0.261364
vt 0.363636 0.500000
vt 0.136364 0.500000
vt 0.136364 0.743750
vt 0.363636 0.743750
vt 0.375000 0.006250
vt 0.472917 0.216667
vt 0.456659 0.215065
vt 0.441026 0.210323
vt 0.426619 0.202622
vt 0.413991 0.192259
vt 0.403628 0.179631
vt 0.395927 0.165224
vt 0.391185 0.149591
vt 0.389583 0.133333
vt 0.391185 0.117076
vt 0.395927 0.101443
vt 0.403628 0.087036
vt 0.413991 0.074408
vt 0.426619 0.064044
vt 0.441026 0.056343
vt 0.456659 0.051601
vt 0.472917 0.050000
vt 0.718750 0.530702
vt 0.718750 0.563596
vt 0.750000 0.563596
vt 0.750000 0.530702
vt 0.718750 0.936403
vt 0.718750 0.969298
vt 0.750000 0.969298
vt 0.750000 0.936404
vt 0.625000 0.530702
vt 0.625000 0.563596
vt 0.656250 0.563596
vt 0.656250 0.530702
vt 0.625000 0.936403
vt 0.625000 0.969298
vt 0.656250 0.969298
vt 0.656250 0.936403
vt 0.687500 0.563596
vt 0.687500 0.530702
vt 0.687500 0.969298
vt 0.687500 0.936403
vt 0.781250 0.530702
vt 0.781250 0.563596
vt 0.812500 0.563596
vt 0.812500 0.530702
vt 0.781250 0.936404
vt 0.781250 0.969298
vt 0.812500 0.969298
vt 0.812500 0.936404
vt 0.843750 0.530702
vt 0.843750 0.563596
vt 0.875000 0.563596
vt 0.875000 0.530702
vt 0.843750 0.936404
vt 0.843750 0.969298
vt 0.875000 0.969298
vt 0.875000 0.936404
vt 0.000000 0.530702
vt 0.000000 0.563596
vt 0.031250 0.563596
vt 0.031250 0.530702
vt 0.000000 0.936404
vt 0.000000 0.969298
vt 0.031250 0.969298
vt 0.031250 0.936404
vt 0.468750 0.530702
vt 0.468750 0.563596
vt 0.500000 0.563596
vt 0.500000 0.530702
vt 0.468750 0.936404
vt 0.468750 0.969298
vt 0.500000 0.969298
vt 0.500000 0.936404
vt 0.531250 0.563596
vt 0.531250 0.530702
vt 0.531250 0.969298
vt 0.531250 0.936404
vt 0.062500 0.563596
vt 0.062500 0.530702
vt 0.062500 0.969298
vt 0.062500 0.936403
vt 0.906250 0.563596
vt 0.906250 0.530702
vt 0.906250 0.969298
vt 0.906250 0.936404
vt 0.406250 0.530702
vt 0.406250 0.563596
vt 0.437500 0.563596
vt 0.437500 0.530702
vt 0.406250 0.936403
vt 0.406250 0.969298
vt 0.437500 0.969298
vt 0.437500 0.936404
vt 0.489174 0.051601
vt 0.504807 0.056343
vt 0.519214 0.064044
vt 0.520833 0.065373
vt 0.520833 0.006250
vt 0.937500 0.563596
vt 0.937500 0.530702
vt 0.937500 0.969298
vt 0.937500 0.936404
vt 0.593750 0.530702
vt 0.593750 0.563596
vt 0.593750 0.936403
vt 0.593750 0.969298
vt 0.093750 0.530702
vt 0.093750 0.563596
vt 0.125000 0.563596
vt 0.125000 0.530702
vt 0.093750 0.936403
vt 0.093750 0.969298
vt 0.125000 0.969298
vt 0.125000 0.936403
vt 0.489174 0.534935
vt 0.504807 0.539677
vt 0.519214 0.547377
vt 0.531842 0.557741
vt 0.534038 0.560417
vt 0.622917 0.560417
vt 0.562500 0.530702
vt 0.562500 0.563596
vt 0.562500 0.936404
vt 0.562500 0.969298
vt 0.968750 0.530702
vt 0.968750 0.563596
vt 1.000000 0.563596
vt 1.000000 0.530702
vt 0.968750 0.936404
vt 0.968750 0.969298
vt 1.000000 0.969298
vt 1.000000 0.936404
vt 0.131621 0.563596
vt 0.131621 0.530702
vt 0.131621 0.969298
vt 0.131621 0.936403
vt 0.544754 0.174039
vt 0.554134 0.171194
vt 0.562778 0.166574
vt 0.570355 0.160355
vt 0.571673 0.158750
vt 0.625000 0.158750
vt 0.520833 0.743750
vt 0.520833 0.684627
vt 0.519214 0.685956
vt 0.504807 0.693657
vt 0.489174 0.698399
vt 0.571673 0.591250
vt 0.570355 0.589645
vt 0.562778 0.583426
vt 0.554134 0.578806
vt 0.544754 0.575961
vt 0.563750 0.665776
vt 0.544755 0.674039
vt 0.554134 0.671194
vt 0.562779 0.666574
vt 0.402243 0.936403
vt 0.402243 0.969298
vt 0.622917 0.189583
vt 0.534038 0.189583
vt 0.531842 0.192259
vt 0.519214 0.202623
vt 0.504807 0.210323
vt 0.489174 0.215065
vt 0.402243 0.530702
vt 0.402243 0.563596
vt 0.563750 0.084224
vt 0.562779 0.083427
vt 0.554134 0.078806
vt 0.544755 0.075961
vt 0.593750 0.261364
vt 0.403296 0.261364
vt 0.403296 0.278409
vt 0.593750 0.278409
vt 0.403296 0.471591
vt 0.403296 0.488636
vt 0.593750 0.488636
vt 0.593750 0.471591
vt 0.363636 0.689655
vt 0.363636 0.658854
vt 0.363636 0.628493
vt 0.346591 0.628493
vt 0.346591 0.689655
vt 0.153409 0.689655
vt 0.153409 0.628493
vt 0.136364 0.628493
vt 0.136364 0.658854
vt 0.136364 0.689655
vt 0.625000 0.000000
vt 0.625000 0.000000
vt 0.625000 0.250000
vt 0.625000 0.250000
vt 0.625000 1.000000
vt 0.625000 0.750000
vt 0.625000 0.750000
vt 0.625000 1.000000
vt 0.625000 0.500000
vt 0.625000 0.500000
vt 0.625000 0.750000
vt 0.625000 0.750000
vt 0.625000 1.000000
vt 0.625000 1.000000
vt 0.125000 0.500000
vt 0.375000 0.500000
vt 0.375000 0.750000
vt 0.125000 0.750000
vt 0.625000 0.000000
vt 0.625000 0.250000
vt 0.625000 0.750000
vt 0.625000 0.500000
vt 0.625000 0.500000
vt 0.625000 1.000000
vt 0.625000 0.500000
vt 0.625000 0.500000
vt 0.625000 0.250000
vt 0.625000 0.250000
vt 0.625000 0.000000
vt 0.625000 0.250000
vt 0.625000 0.500000
vt 0.375000 1.000000
vt 0.375000 0.250000
vt 0.375000 0.000000
vt 0.625000 0.500000
vt 0.625000 0.750000
vt 0.625000 0.250000
vt 0.625000 0.250000
vt 0.625000 0.250000
vt 0.625000 0.250000
vt 0.625000 0.250000
vt 0.625000 0.500000
vt 0.625000 0.250000
vt 0.625000 0.500000
vt 0.625000 0.000000
vt 0.625000 0.500000
vt 0.625000 0.500000
vt 0.625000 1.000000
vt 0.625000 0.000000
vt 0.625000 0.250000
vt 0.625000 0.250000
vt 0.625000 0.500000
vt 0.625000 0.500000
vt 0.625000 0.250000
vt 0.625000 0.500000
vt 0.625000 0.500000
vt 0.875000 0.500000
vt 0.875000 0.750000
vt 0.625000 0.750000
vt 0.625000 0.250000
vn 0.0000 0.0000 1.0000
vn -1.0000 0.0000 0.0000
vn 0.0000 1.0000 0.0000
vn 0.0000 -1.0000 0.0000
vn 1.0000 0.0000 0.0000
vn 0.0000 0.0000 -1.0000
vn 0.0000 0.9952 -0.0980
vn 0.0000 0.7730 -0.6344
vn 0.0000 0.8819 -0.4714
vn 0.0000 0.9569 0.2903
vn 0.0000 0.9952 0.0980
vn 0.0000 0.7730 0.6344
vn 0.0000 -0.0980 0.9952
vn -0.0000 -0.0980 -0.9952
vn -0.0000 0.0980 -0.9952
vn -0.0000 -0.2903 0.9569
vn -0.0000 0.6344 0.7730
vn 0.0000 -0.4714 -0.8819
vn -0.0000 0.4714 0.8819
vn 0.0000 0.6344 -0.7730
vn -0.0000 -0.6344 0.7730
vn 0.0000 0.4714 -0.8819
vn 0.0000 0.0980 0.9952
vn 0.0000 0.8819 0.4714
vn 0.0000 0.9569 -0.2903
vn -0.0000 -0.2903 -0.9569
vn 0.0000 -0.4714 0.8819
vn 0.0000 0.2903 0.9569
vn 0.0000 0.2903 -0.9569
vn -0.0000 -0.7730 0.6344
vn 0.0000 -0.6344 -0.7730
usemtl Material
s off
f 1/1/1 2/2/1 13/3/1 15/4/1
f 2/2/2 14/5/2 81/6/2 41/7/2 33/8/2 29/9/2 61/10/2 105/11/2 65/12/2 58/13/2 70/14/2 90/15/2 98/16/2 38/17/2 26/18/2 94/19/2 18/20/2 22/21/2 86/22/2
f 1/23/3 16/24/3 14/5/3 2/2/3
f 3/25/3 6/26/3 120/27/3 117/28/3 15/29/3 13/30/3 113/31/3 114/32/3
f 5/33/1 11/34/1 12/35/1 8/36/1
f 8/37/2 12/38/2 9/39/2 128/40/2 129/41/2 82/42/2 42/43/2 34/44/2 30/45/2 62/46/2 106/47/2 66/48/2 57/49/2 69/50/2 89/51/2 97/52/2 37/53/2 25/54/2 93/55/2 17/56/2 21/57/2 85/58/2 6/59/2 7/60/2
f 7/61/4 4/62/4 5/33/4 8/63/4
f 4/62/5 3/25/5 88/64/5 24/65/5 20/66/5 96/67/5 28/68/5 40/69/5 100/70/5 92/71/5 72/72/5 60/73/5 68/74/5 108/75/5 64/76/5 32/77/5 36/78/5 44/79/5 84/80/5 123/81/5 125/82/5 10/83/5 11/34/5 5/33/5
f 7/60/6 6/59/6 3/25/6 4/62/6
f 9/84/1 10/85/1 125/86/1 124/87/1 14/88/1 16/89/1 127/90/1 128/91/1
f 10/92/3 9/93/3 12/94/3 11/95/3
f 16/96/5 1/1/5 87/97/5 23/98/5 19/99/5 95/100/5 27/101/5 39/102/5 99/103/5 91/104/5 71/105/5 59/106/5 67/107/5 107/108/5 63/109/5 31/110/5 35/111/5 43/112/5 83/113/5
f 57/114/7 59/115/7 71/116/7 69/117/7
f 58/118/7 60/119/7 72/120/7 70/121/7
f 62/122/8 63/123/8 107/124/8 106/125/8
f 61/126/8 64/127/8 108/128/8 105/129/8
f 106/125/9 107/124/9 67/130/9 66/131/9
f 105/129/9 108/128/9 68/132/9 65/133/9
f 89/134/10 91/135/10 99/136/10 97/137/10
f 90/138/10 92/139/10 100/140/10 98/141/10
f 69/117/11 71/116/11 91/135/11 89/134/11
f 70/121/11 72/120/11 92/139/11 90/138/11
f 37/142/12 39/143/12 27/144/12 25/145/12
f 38/146/12 40/147/12 28/148/12 26/149/12
f 85/150/13 87/151/13 111/152/13 109/153/13
f 86/154/13 88/155/13 112/156/13 110/157/13
f 102/158/14 103/159/14 83/160/14 82/161/14
f 101/162/14 104/163/14 84/164/14 81/165/14
f 82/161/15 83/160/15 43/166/15 42/167/15
f 81/165/15 84/164/15 44/168/15 41/169/15
f 109/153/16 111/152/16 51/170/16 50/171/16
f 110/157/16 112/156/16 52/172/16 49/173/16
f 25/145/17 27/144/17 95/174/17 93/175/17
f 26/149/17 28/148/17 96/176/17 94/177/17
f 54/178/18 55/179/18 47/180/18 46/181/18
f 53/182/18 56/183/18 48/184/18 45/185/18
f 83/113/5 103/186/5 47/187/5 55/188/5 126/189/5 127/190/5 16/96/5
f 93/175/19 95/174/19 19/191/19 17/192/19
f 94/177/19 96/176/19 20/193/19 18/194/19
f 30/195/20 31/196/20 63/123/20 62/122/20
f 29/197/20 32/198/20 64/127/20 61/126/20
f 78/199/21 79/200/21 75/201/21 74/202/21
f 77/203/21 80/204/21 76/205/21 73/206/21
f 86/22/2 110/207/2 49/208/2 77/209/2 73/210/2 118/211/2 113/212/2 13/3/2 2/2/2
f 34/213/22 35/214/22 31/196/22 30/195/22
f 33/215/22 36/216/22 32/198/22 29/197/22
f 21/217/23 23/218/23 87/219/23 85/220/23
f 22/221/23 24/222/23 88/223/23 86/224/23
f 97/137/24 99/136/24 39/143/24 37/142/24
f 98/141/24 100/140/24 40/147/24 38/146/24
f 66/131/25 67/130/25 59/115/25 57/114/25
f 65/133/25 68/132/25 60/119/25 58/118/25
f 46/181/26 47/180/26 103/159/26 102/158/26
f 45/185/26 48/184/26 104/163/26 101/162/26
f 50/171/27 51/170/27 79/200/27 78/199/27
f 49/173/27 52/172/27 80/204/27 77/203/27
f 17/192/28 19/191/28 23/218/28 21/217/28
f 18/194/28 20/193/28 24/222/28 22/221/28
f 42/167/29 43/166/29 35/214/29 34/213/29
f 41/169/29 44/168/29 36/216/29 33/215/29
f 74/202/30 75/201/30 116/225/30 119/226/30
f 73/206/30 76/205/30 115/227/30 118/228/30
f 6/59/2 85/58/2 109/229/2 50/230/2 78/231/2 74/232/2 119/233/2 120/234/2
f 124/235/2 121/236/2 53/237/2 45/238/2 101/239/2 81/6/2 14/5/2
f 114/32/5 115/240/5 76/241/5 80/242/5 52/243/5 112/244/5 88/64/5 3/25/5
f 122/245/5 123/81/5 84/80/5 104/246/5 48/247/5 56/248/5
f 121/249/31 122/250/31 56/183/31 53/182/31
f 117/251/5 116/252/5 75/253/5 79/254/5 51/255/5 111/256/5 87/97/5 1/1/5 15/4/5
f 130/257/31 126/258/31 55/179/31 54/178/31
f 129/41/2 130/259/2 54/260/2 46/261/2 102/262/2 82/42/2
f 120/263/1 119/264/1 116/265/1 117/266/1
f 118/267/1 115/268/1 114/269/1 113/270/1
f 125/271/3 123/272/3 122/273/3 121/274/3 124/275/3
f 127/276/3 126/277/3 130/278/3 129/279/3 128/280/3
f 147/281/1 132/282/1 134/283/1 148/284/1
f 143/285/1 145/286/1 157/287/1 155/288/1
f 149/289/1 138/290/1 136/291/1 150/292/1
f 150/292/1 136/291/1 132/293/1 147/294/1
f 133/295/4 137/296/4 135/297/4 131/298/4
f 134/283/1 132/282/1 139/299/1 140/300/1
f 141/301/5 142/302/5 146/303/5 145/286/5
f 132/293/1 136/291/1 141/301/1 139/304/1
f 142/302/1 138/290/1 152/305/1 154/306/1
f 136/291/1 138/290/1 142/302/1 141/301/1
f 148/284/1 134/283/1 151/307/1 159/308/1
f 140/300/2 139/299/2 143/309/2 144/310/2
f 139/304/1 141/301/1 145/286/1 143/285/1
f 145/286/1 146/303/1 158/311/1 157/287/1
f 135/297/1 150/292/1 147/294/1 131/312/1
f 137/296/5 149/289/5 150/292/5 135/297/5
f 133/313/6 148/284/6 149/289/6 137/296/6
f 131/314/2 147/281/2 148/284/2 133/313/2
f 157/287/1 158/311/1 168/315/1 167/316/1
f 153/317/1 156/318/1 166/319/1 163/320/1
f 151/307/1 153/317/1 163/320/1 161/321/1
f 160/322/1 159/308/1 169/323/1 170/324/1
f 138/290/1 149/289/1 160/322/1 152/305/1
f 144/310/1 143/309/1 155/325/1 156/318/1
f 140/300/1 144/310/1 156/318/1 153/317/1
f 149/289/1 148/284/1 159/308/1 160/322/1
f 134/283/1 140/300/1 153/317/1 151/307/1
f 146/303/1 142/302/1 154/306/1 158/311/1
f 154/306/1 152/305/1 162/326/1 164/327/1
f 159/308/1 151/307/1 161/321/1 169/323/1
f 155/288/1 157/287/1 167/316/1 165/328/1
f 156/318/1 155/325/1 165/329/1 166/319/1
f 152/305/1 160/322/1 170/324/1 162/326/1
f 158/311/1 154/306/1 164/327/1 168/315/1
f 179/330/1 171/331/1 172/332/1 180/333/1
f 172/332/1 171/331/1 173/334/1 174/335/1
f 178/336/3 176/337/3 175/338/3 177/339/3
f 174/335/6 173/334/6 176/340/6 178/336/6
