# Blender v2.82 (sub 7) OBJ File: 'halfTriangle.blend'
# www.blender.org
mtllib halfTriangle.mtl
o Cube
v 1.000000 -1.000000 -1.000000
v 1.000000 -1.000000 1.000000
v -1.000000 -1.000000 -1.000000
v -1.000000 -1.000000 1.000000
v -1.000000 -0.582558 1.000000
v 1.000000 -0.582558 1.000000
v 1.000000 0.561913 -1.000000
v -1.000000 0.561913 -1.000000
vt 0.125000 0.500000
vt 0.375000 0.500000
vt 0.375000 0.750000
vt 0.125000 0.750000
vt 0.427180 0.750000
vt 0.570239 0.500000
vt 0.427180 1.000000
vt 0.375000 1.000000
vt 0.570239 0.250000
vt 0.427180 0.000000
vn 0.0000 -1.0000 0.0000
vn 1.0000 0.0000 0.0000
vn 0.0000 0.0000 1.0000
vn 0.0000 0.0000 -1.0000
vn -1.0000 0.0000 0.0000
vn 0.0000 0.8679 0.4967
usemtl Material
s off
f 3/1/1 1/2/1 2/3/1 4/4/1
f 6/5/2 2/3/2 1/2/2 7/6/2
f 2/3/3 6/5/3 5/7/3 4/8/3
f 1/2/4 3/1/4 8/9/4 7/6/4
f 3/1/5 4/8/5 5/10/5 8/9/5
f 6/5/6 7/6/6 8/9/6 5/10/6
