# Blender v2.82 (sub 7) OBJ File: ''
# www.blender.org
mtllib 1x1.mtl
o Cylinder
v -0.800000 0.550000 0.800000
v -0.800000 0.550000 -0.800000
v 0.800000 0.550000 0.800000
v 0.800000 0.550000 -0.800000
v 0.000000 1.000000 -0.800000
v 0.000000 1.500000 -0.800000
v 0.156072 1.000000 -0.784628
v 0.156072 1.500000 -0.784628
v 0.306147 1.000000 -0.739104
v 0.306147 1.500000 -0.739104
v 0.444456 1.000000 -0.665176
v 0.444456 1.500000 -0.665176
v 0.565685 1.000000 -0.565685
v 0.565685 1.500000 -0.565685
v 0.665176 1.000000 -0.444456
v 0.665176 1.500000 -0.444456
v 0.739104 1.000000 -0.306147
v 0.739104 1.500000 -0.306147
v 0.784628 1.000000 -0.156072
v 0.784628 1.500000 -0.156072
v 0.800000 1.000000 -0.000000
v 0.800000 1.500000 -0.000000
v 0.784628 1.000000 0.156072
v 0.784628 1.500000 0.156072
v 0.739104 1.000000 0.306147
v 0.739104 1.500000 0.306147
v 0.665176 1.000000 0.444456
v 0.665176 1.500000 0.444456
v 0.565685 1.000000 0.565685
v 0.565685 1.500000 0.565685
v 0.444456 1.000000 0.665176
v 0.444456 1.500000 0.665176
v 0.306147 1.000000 0.739104
v 0.306147 1.500000 0.739104
v 0.156072 1.000000 0.784628
v 0.156072 1.500000 0.784628
v -0.000000 1.000000 0.800000
v -0.000000 1.500000 0.800000
v -0.156073 1.000000 0.784628
v -0.156073 1.500000 0.784628
v -0.306147 1.000000 0.739103
v -0.306147 1.500000 0.739103
v -0.444457 1.000000 0.665175
v -0.444457 1.500000 0.665175
v -0.565686 1.000000 0.565685
v -0.565686 1.500000 0.565685
v -0.665176 1.000000 0.444456
v -0.665176 1.500000 0.444456
v -0.739104 1.000000 0.306146
v -0.739104 1.500000 0.306146
v -0.784628 1.000000 0.156072
v -0.784628 1.500000 0.156072
v -0.800000 1.000000 -0.000001
v -0.800000 1.500000 -0.000001
v -0.784628 1.000000 -0.156073
v -0.784628 1.500000 -0.156073
v -0.739103 1.000000 -0.306148
v -0.739103 1.500000 -0.306148
v -0.665175 1.000000 -0.444457
v -0.665175 1.500000 -0.444457
v -0.565685 1.000000 -0.565686
v -0.565685 1.500000 -0.565686
v -0.444455 1.000000 -0.665176
v -0.444455 1.500000 -0.665176
v -0.306146 1.000000 -0.739104
v -0.306146 1.500000 -0.739104
v -0.156071 1.000000 -0.784628
v -0.156071 1.500000 -0.784628
v 1.000000 1.000000 -1.000000
v 1.000000 -1.000000 -1.000000
v 1.000000 1.000000 1.000000
v 1.000000 -1.000000 1.000000
v -1.000000 1.000000 -1.000000
v -1.000000 -1.000000 -1.000000
v -1.000000 1.000000 1.000000
v -1.000000 -1.000000 1.000000
v -0.800000 -1.000000 -0.800000
v 0.800000 -1.000000 -0.800000
v 0.800000 -1.000000 0.800000
v -0.800000 -1.000000 0.800000
vt 0.369048 0.786667
vt 0.369048 0.653333
vt 0.488095 0.653333
vt 0.488095 0.786667
vt 0.252538 0.986667
vt 0.252538 0.853333
vt 0.264151 0.853333
vt 0.264151 0.986667
vt 0.275317 0.853333
vt 0.275317 0.986667
vt 0.285608 0.853333
vt 0.285608 0.986667
vt 0.294628 0.853333
vt 0.294628 0.986667
vt 0.193613 0.853333
vt 0.193613 0.986667
vt 0.184593 0.986667
vt 0.184593 0.853333
vt 0.174302 0.986667
vt 0.174302 0.853333
vt 0.163135 0.986667
vt 0.163135 0.853333
vt 0.151523 0.986667
vt 0.151523 0.853333
vt 0.139910 0.986667
vt 0.139910 0.853333
vt 0.128744 0.986667
vt 0.128744 0.853333
vt 0.118453 0.986667
vt 0.118453 0.853333
vt 0.109433 0.986667
vt 0.109433 0.853333
vt 0.365561 0.946667
vt 0.365561 0.813333
vt 0.374581 0.813333
vt 0.374581 0.946667
vt 0.384872 0.813333
vt 0.384872 0.946667
vt 0.396038 0.813333
vt 0.396038 0.946667
vt 0.407651 0.813333
vt 0.407651 0.946667
vt 0.419263 0.813333
vt 0.419263 0.946667
vt 0.430429 0.813333
vt 0.430429 0.946667
vt 0.440720 0.813333
vt 0.440720 0.946667
vt 0.449740 0.813333
vt 0.449740 0.946667
vt 0.092597 0.853333
vt 0.092597 0.986667
vt 0.083577 0.986667
vt 0.083577 0.853333
vt 0.073286 0.986667
vt 0.073286 0.853333
vt 0.062120 0.986667
vt 0.062120 0.853333
vt 0.050508 0.986667
vt 0.050508 0.853333
vt 0.038895 0.986667
vt 0.038895 0.853333
vt 0.027729 0.986667
vt 0.027729 0.853333
vt 0.017438 0.986667
vt 0.017438 0.853333
vt 0.008418 0.986667
vt 0.008418 0.853333
vt 0.210448 0.986667
vt 0.210448 0.853333
vt 0.219468 0.853333
vt 0.219469 0.986667
vt 0.229759 0.853333
vt 0.229759 0.986667
vt 0.565250 0.945190
vt 0.553806 0.942640
vt 0.543025 0.937639
vt 0.533323 0.930378
vt 0.525072 0.921137
vt 0.518589 0.910271
vt 0.514124 0.898197
vt 0.511847 0.885379
vt 0.511847 0.872310
vt 0.514124 0.859492
vt 0.518589 0.847418
vt 0.525072 0.836551
vt 0.533323 0.827310
vt 0.543025 0.820050
vt 0.553806 0.815048
vt 0.565250 0.812499
vt 0.576919 0.812499
vt 0.588363 0.815048
vt 0.599144 0.820050
vt 0.608846 0.827310
vt 0.617097 0.836551
vt 0.623580 0.847418
vt 0.628045 0.859492
vt 0.630322 0.872310
vt 0.630322 0.885379
vt 0.628045 0.898197
vt 0.623580 0.910271
vt 0.617097 0.921137
vt 0.608846 0.930378
vt 0.599144 0.937639
vt 0.588363 0.942640
vt 0.576919 0.945190
vt 0.240926 0.853333
vt 0.240926 0.986667
vt 0.511847 0.713080
vt 0.514124 0.700262
vt 0.518589 0.688188
vt 0.525072 0.677322
vt 0.533323 0.668081
vt 0.543025 0.660820
vt 0.553806 0.655819
vt 0.565250 0.653269
vt 0.576919 0.653269
vt 0.588363 0.655819
vt 0.599144 0.660820
vt 0.608846 0.668081
vt 0.617097 0.677322
vt 0.623580 0.688188
vt 0.628045 0.700262
vt 0.630322 0.713080
vt 0.630322 0.726149
vt 0.628045 0.738967
vt 0.623580 0.751041
vt 0.617097 0.761908
vt 0.608846 0.771149
vt 0.599144 0.778410
vt 0.588363 0.783411
vt 0.576919 0.785960
vt 0.565250 0.785960
vt 0.553806 0.783411
vt 0.543025 0.778409
vt 0.533323 0.771149
vt 0.525072 0.761908
vt 0.518589 0.751041
vt 0.514124 0.738967
vt 0.511847 0.726149
vt 0.193452 0.656667
vt 0.342262 0.656667
vt 0.342262 0.823333
vt 0.193452 0.823333
vt 0.550595 0.586667
vt 0.550595 0.053333
vt 0.699405 0.053333
vt 0.699405 0.586667
vt 0.193453 0.586667
vt 0.193452 0.053333
vt 0.342262 0.053333
vt 0.342262 0.586667
vt 0.014881 0.656667
vt 0.163690 0.656667
vt 0.163690 0.823333
vt 0.148809 0.806667
vt 0.148809 0.673333
vt 0.029762 0.673333
vt 0.163690 0.053333
vt 0.163691 0.586667
vt 0.014881 0.586667
vt 0.014881 0.053333
vt 0.372024 0.586667
vt 0.372024 0.053333
vt 0.520833 0.053333
vt 0.520833 0.586667
vt 0.869048 0.454667
vt 0.869048 0.041333
vt 0.988095 0.041333
vt 0.988095 0.454667
vt 0.988095 0.537333
vt 0.988095 0.950667
vt 0.869048 0.950667
vt 0.869048 0.537333
vt 0.845238 0.041333
vt 0.845238 0.454667
vt 0.726191 0.454667
vt 0.726191 0.041333
vt 0.029762 0.806667
vt 0.014881 0.823333
vt 0.845238 0.537333
vt 0.845238 0.950667
vt 0.726191 0.950667
vt 0.726191 0.537333
vn 0.0000 -1.0000 0.0000
vn 0.0980 0.0000 -0.9952
vn 0.2903 0.0000 -0.9569
vn 0.4714 0.0000 -0.8819
vn 0.6344 0.0000 -0.7730
vn 0.7730 0.0000 -0.6344
vn 0.8819 0.0000 -0.4714
vn 0.9569 0.0000 -0.2903
vn 0.9952 0.0000 -0.0980
vn 0.9952 0.0000 0.0980
vn 0.9569 0.0000 0.2903
vn 0.8819 0.0000 0.4714
vn 0.7730 0.0000 0.6344
vn 0.6344 0.0000 0.7730
vn 0.4714 0.0000 0.8819
vn 0.2903 0.0000 0.9569
vn 0.0980 0.0000 0.9952
vn -0.0980 0.0000 0.9952
vn -0.2903 0.0000 0.9569
vn -0.4714 0.0000 0.8819
vn -0.6344 0.0000 0.7730
vn -0.7730 0.0000 0.6344
vn -0.8819 0.0000 0.4714
vn -0.9569 0.0000 0.2903
vn -0.9952 0.0000 0.0980
vn -0.9952 0.0000 -0.0980
vn -0.9569 0.0000 -0.2903
vn -0.8819 0.0000 -0.4714
vn -0.7730 0.0000 -0.6344
vn -0.6344 0.0000 -0.7730
vn -0.4714 0.0000 -0.8819
vn 0.0000 1.0000 -0.0000
vn -0.2903 0.0000 -0.9569
vn -0.0980 0.0000 -0.9952
vn 0.0000 0.0000 1.0000
vn -1.0000 0.0000 0.0000
vn 1.0000 0.0000 0.0000
vn 0.0000 0.0000 -1.0000
usemtl Material
s off
f 4/1/1 3/2/1 1/3/1 2/4/1
f 5/5/2 6/6/2 8/7/2 7/8/2
f 7/8/3 8/7/3 10/9/3 9/10/3
f 9/10/4 10/9/4 12/11/4 11/12/4
f 11/12/5 12/11/5 14/13/5 13/14/5
f 13/15/6 14/16/6 16/17/6 15/18/6
f 15/18/7 16/17/7 18/19/7 17/20/7
f 17/20/8 18/19/8 20/21/8 19/22/8
f 19/22/9 20/21/9 22/23/9 21/24/9
f 21/24/10 22/23/10 24/25/10 23/26/10
f 23/26/11 24/25/11 26/27/11 25/28/11
f 25/28/12 26/27/12 28/29/12 27/30/12
f 27/30/13 28/29/13 30/31/13 29/32/13
f 29/33/14 30/34/14 32/35/14 31/36/14
f 31/36/15 32/35/15 34/37/15 33/38/15
f 33/38/16 34/37/16 36/39/16 35/40/16
f 35/40/17 36/39/17 38/41/17 37/42/17
f 37/42/18 38/41/18 40/43/18 39/44/18
f 39/44/19 40/43/19 42/45/19 41/46/19
f 41/46/20 42/45/20 44/47/20 43/48/20
f 43/48/21 44/47/21 46/49/21 45/50/21
f 45/51/22 46/52/22 48/53/22 47/54/22
f 47/54/23 48/53/23 50/55/23 49/56/23
f 49/56/24 50/55/24 52/57/24 51/58/24
f 51/58/25 52/57/25 54/59/25 53/60/25
f 53/60/26 54/59/26 56/61/26 55/62/26
f 55/62/27 56/61/27 58/63/27 57/64/27
f 57/64/28 58/63/28 60/65/28 59/66/28
f 59/66/29 60/65/29 62/67/29 61/68/29
f 61/69/30 62/70/30 64/71/30 63/72/30
f 63/72/31 64/71/31 66/73/31 65/74/31
f 8/75/32 6/76/32 68/77/32 66/78/32 64/79/32 62/80/32 60/81/32 58/82/32 56/83/32 54/84/32 52/85/32 50/86/32 48/87/32 46/88/32 44/89/32 42/90/32 40/91/32 38/92/32 36/93/32 34/94/32 32/95/32 30/96/32 28/97/32 26/98/32 24/99/32 22/100/32 20/101/32 18/102/32 16/103/32 14/104/32 12/105/32 10/106/32
f 65/74/33 66/73/33 68/107/33 67/108/33
f 67/108/34 68/107/34 6/6/34 5/5/34
f 5/109/1 7/110/1 9/111/1 11/112/1 13/113/1 15/114/1 17/115/1 19/116/1 21/117/1 23/118/1 25/119/1 27/120/1 29/121/1 31/122/1 33/123/1 35/124/1 37/125/1 39/126/1 41/127/1 43/128/1 45/129/1 47/130/1 49/131/1 51/132/1 53/133/1 55/134/1 57/135/1 59/136/1 61/137/1 63/138/1 65/139/1 67/140/1
f 69/141/32 73/142/32 75/143/32 71/144/32
f 72/145/35 71/146/35 75/147/35 76/148/35
f 76/149/36 75/150/36 73/151/36 74/152/36
f 74/153/1 70/154/1 72/155/1 79/156/1 78/157/1 77/158/1
f 70/159/37 69/160/37 71/161/37 72/162/37
f 74/163/38 73/164/38 69/165/38 70/166/38
f 79/167/36 3/168/36 4/169/36 78/170/36
f 78/171/35 4/172/35 2/173/35 77/174/35
f 77/175/37 2/176/37 1/177/37 80/178/37
f 77/158/1 80/179/1 79/156/1 72/155/1 76/180/1 74/153/1
f 80/181/38 1/182/38 3/183/38 79/184/38
