# Blender v2.82 (sub 7) OBJ File: 'NosePiece.blend'
# www.blender.org
mtllib EyePiece.mtl
o Eye_Cylinder.003
v 3.493217 0.873571 0.190532
v 3.493217 0.897799 0.055464
v 3.493217 0.895212 -0.081736
v 3.493217 0.865907 -0.215794
v 3.493217 0.811013 -0.341560
v 3.493217 0.732637 -0.454200
v 3.493217 0.633793 -0.549385
v 3.493217 0.518278 -0.623457
v 3.493217 0.390532 -0.673571
v 3.493217 0.255464 -0.697799
v 3.493217 0.118265 -0.695212
v 3.493217 -0.015794 -0.665908
v 3.493217 -0.141560 -0.611013
v 3.493217 -0.254200 -0.532637
v 3.493217 -0.349385 -0.433793
v 3.493217 -0.423457 -0.318278
v 3.493217 -0.473571 -0.190532
v 3.493217 -0.497799 -0.055464
v 3.493217 -0.495212 0.081736
v 3.493217 -0.465907 0.215794
v 3.493217 -0.411013 0.341560
v 3.493217 -0.332637 0.454200
v 3.493217 -0.233793 0.549385
v 3.493217 -0.118278 0.623457
v 3.493217 0.009468 0.673571
v 3.493217 0.144537 0.697799
v 3.493217 0.281736 0.695212
v 3.493217 0.415795 0.665907
v 3.493217 0.541561 0.611013
v 3.493217 0.654200 0.532637
v 3.493217 0.749385 0.433792
v 3.493217 0.823458 0.318277
v 3.103217 0.969795 0.217751
v 3.603217 0.969795 0.217751
v 3.103217 0.997485 0.063387
v 3.603217 0.997485 0.063387
v 3.103217 0.994528 -0.093412
v 3.603217 0.994528 -0.093412
v 3.103217 0.961037 -0.246622
v 3.603217 0.961037 -0.246622
v 3.103217 0.898301 -0.390354
v 3.603217 0.898301 -0.390354
v 3.103217 0.808729 -0.519085
v 3.603217 0.808729 -0.519085
v 3.103217 0.695764 -0.627868
v 3.603217 0.695764 -0.627868
v 3.103217 0.563747 -0.712523
v 3.603217 0.563747 -0.712523
v 3.103217 0.417751 -0.769795
v 3.603217 0.417751 -0.769795
v 3.103217 0.263388 -0.797485
v 3.603217 0.263388 -0.797485
v 3.103217 0.106588 -0.794528
v 3.603217 0.106588 -0.794528
v 3.103217 -0.046622 -0.761037
v 3.603217 -0.046622 -0.761037
v 3.103217 -0.190354 -0.698301
v 3.603217 -0.190354 -0.698301
v 3.103217 -0.319085 -0.608729
v 3.603217 -0.319085 -0.608729
v 3.103217 -0.427868 -0.495763
v 3.603217 -0.427868 -0.495764
v 3.103217 -0.512523 -0.363746
v 3.603217 -0.512523 -0.363746
v 3.103217 -0.569795 -0.217751
v 3.603217 -0.569795 -0.217751
v 3.103217 -0.597485 -0.063387
v 3.603217 -0.597485 -0.063387
v 3.103217 -0.594528 0.093412
v 3.603217 -0.594528 0.093412
v 3.103217 -0.561037 0.246622
v 3.603217 -0.561037 0.246622
v 3.103217 -0.498300 0.390355
v 3.603217 -0.498300 0.390355
v 3.103217 -0.408728 0.519086
v 3.603217 -0.408728 0.519086
v 3.103217 -0.295763 0.627869
v 3.603217 -0.295763 0.627869
v 3.103217 -0.163746 0.712523
v 3.603217 -0.163746 0.712523
v 3.103217 -0.017750 0.769795
v 3.603217 -0.017750 0.769795
v 3.103217 0.136613 0.797485
v 3.603217 0.136613 0.797485
v 3.103217 0.293413 0.794528
v 3.603217 0.293413 0.794528
v 3.103217 0.446623 0.761037
v 3.603217 0.446623 0.761037
v 3.103217 0.590355 0.698300
v 3.603217 0.590355 0.698300
v 3.103217 0.719086 0.608728
v 3.603217 0.719086 0.608728
v 3.103217 0.827869 0.495763
v 3.603217 0.827869 0.495763
v 3.103217 0.912523 0.363746
v 3.603217 0.912523 0.363745
v 3.103217 0.281736 0.695212
v 3.103217 0.415795 0.665907
v 3.103217 0.895212 -0.081736
v 3.103217 0.897799 0.055464
v 3.103217 0.144537 0.697799
v 3.103217 0.811013 -0.341560
v 3.103217 -0.254200 -0.532637
v 3.103217 -0.349385 -0.433793
v 3.103217 0.732637 -0.454200
v 3.103217 -0.423457 -0.318278
v 3.103217 -0.495212 0.081736
v 3.103217 0.009468 0.673571
v 3.103217 0.749385 0.433792
v 3.103217 -0.465907 0.215794
v 3.103217 0.255464 -0.697799
v 3.103217 -0.141560 -0.611013
v 3.103217 0.118265 -0.695212
v 3.103217 0.390532 -0.673571
v 3.103217 0.541561 0.611013
v 3.103217 0.654200 0.532637
v 3.103217 -0.473571 -0.190532
v 3.103217 0.873571 0.190532
v 3.103217 0.518278 -0.623457
v 3.103217 0.865907 -0.215794
v 3.103217 0.633793 -0.549385
v 3.103217 -0.233793 0.549385
v 3.103217 -0.332637 0.454200
v 3.103217 -0.118278 0.623457
v 3.103217 -0.411013 0.341560
v 3.103217 -0.497799 -0.055464
v 3.103217 -0.015794 -0.665908
v 3.103217 0.823458 0.318277
vt 0.326694 0.455761
vt 0.337290 0.428160
vt 0.352673 0.403320
vt 0.372252 0.382195
vt 0.395274 0.365598
vt 0.420855 0.354165
vt 0.448012 0.348337
vt 0.475701 0.348337
vt 0.502858 0.354165
vt 0.528439 0.365598
vt 0.551462 0.382195
vt 0.571041 0.403320
vt 0.586424 0.428160
vt 0.597020 0.455761
vt 0.602422 0.485062
vt 0.602422 0.514938
vt 0.597020 0.544239
vt 0.586424 0.571840
vt 0.571041 0.596680
vt 0.551462 0.617805
vt 0.528439 0.634402
vt 0.502858 0.645835
vt 0.475701 0.651663
vt 0.448012 0.651663
vt 0.420855 0.645835
vt 0.395274 0.634402
vt 0.372252 0.617805
vt 0.352673 0.596680
vt 0.337290 0.571839
vt 0.326693 0.544238
vt 0.321292 0.514937
vt 0.321292 0.485062
vt 0.492932 0.000000
vt 0.492932 0.348337
vt 0.461896 0.348337
vt 0.461896 0.000000
vt 0.430251 0.348337
vt 0.430251 0.000000
vt 0.399215 0.348337
vt 0.399215 0.000000
vt 0.369979 0.348337
vt 0.369979 0.000000
vt 0.343668 0.348337
vt 0.343668 0.000000
vt 0.321292 0.348337
vt 0.321292 0.000000
vt 0.548479 0.651663
vt 0.548479 1.000000
vt 0.522168 1.000000
vt 0.522168 0.651663
vt 0.492932 1.000000
vt 0.492932 0.651663
vt 0.461896 1.000000
vt 0.461896 0.651663
vt 0.430251 1.000000
vt 0.430251 0.651663
vt 0.399215 1.000000
vt 0.399215 0.651663
vt 0.369979 1.000000
vt 0.369979 0.651663
vt 0.343668 1.000000
vt 0.343668 0.651663
vt 0.321292 1.000000
vt 0.321292 0.651663
vt 0.829610 0.348337
vt 0.829610 0.696673
vt 0.807234 0.696673
vt 0.807234 0.348337
vt 0.780922 0.696673
vt 0.780922 0.348337
vt 0.751686 0.696673
vt 0.751686 0.348337
vt 0.720650 0.696673
vt 0.720650 0.348337
vt 0.689005 0.696673
vt 0.689005 0.348337
vt 0.657969 0.696673
vt 0.657969 0.348337
vt 0.628733 0.696673
vt 0.628733 0.348337
vt 0.602422 0.696673
vt 0.602422 0.348337
vt 0.775667 0.000000
vt 0.775667 0.348337
vt 0.749355 0.348337
vt 0.749355 0.000000
vt 0.720120 0.348337
vt 0.720120 0.000000
vt 0.689083 0.348337
vt 0.689083 0.000000
vt 0.657439 0.348337
vt 0.657439 0.000000
vt 0.626402 0.348337
vt 0.626402 0.000000
vt 0.597167 0.348337
vt 0.597167 0.000000
vt 0.570855 0.348337
vt 0.570855 0.000000
vt 0.548479 0.348337
vt 0.548479 0.000000
vt 0.144824 0.693318
vt 0.113787 0.686658
vt 0.084552 0.673592
vt 0.058240 0.654623
vt 0.035864 0.630480
vt 0.018283 0.602091
vt 0.006174 0.570547
vt 0.000000 0.537061
vt 0.000000 0.502918
vt 0.006173 0.469431
vt 0.018283 0.437887
vt 0.035864 0.409498
vt 0.058240 0.385355
vt 0.084551 0.366386
vt 0.113787 0.353320
vt 0.144824 0.346659
vt 0.176468 0.346659
vt 0.207504 0.353320
vt 0.236740 0.366386
vt 0.263052 0.385355
vt 0.285428 0.409498
vt 0.303008 0.437887
vt 0.315118 0.469431
vt 0.321292 0.502917
vt 0.321292 0.537060
vt 0.315118 0.570547
vt 0.303008 0.602091
vt 0.285428 0.630480
vt 0.263052 0.654623
vt 0.236740 0.673592
vt 0.207504 0.686658
vt 0.176468 0.693318
vt 0.522168 0.348337
vt 0.522168 0.000000
vt 0.207505 0.339998
vt 0.176468 0.346659
vt 0.144824 0.346659
vt 0.113787 0.339998
vt 0.084552 0.326932
vt 0.058240 0.307964
vt 0.035864 0.283821
vt 0.018283 0.255432
vt 0.006174 0.223888
vt 0.025483 0.217568
vt 0.036079 0.245169
vt 0.051462 0.270010
vt 0.071041 0.291134
vt 0.094064 0.307732
vt 0.119645 0.319165
vt 0.146802 0.324993
vt 0.174491 0.324993
vt 0.201647 0.319165
vt 0.227228 0.307732
vt 0.250251 0.291134
vt 0.269830 0.270009
vt 0.285213 0.245169
vt 0.295809 0.217568
vt 0.301211 0.188267
vt 0.301211 0.158392
vt 0.295809 0.129091
vt 0.315118 0.122771
vt 0.321292 0.156258
vt 0.321292 0.190401
vt 0.315118 0.223888
vt 0.303008 0.255432
vt 0.285428 0.283821
vt 0.263052 0.307964
vt 0.236740 0.326932
vt 0.851427 0.000000
vt 0.851427 0.271703
vt 0.824270 0.271703
vt 0.824270 0.000000
vt 0.931854 0.000000
vt 0.931854 0.271703
vt 0.906273 0.271703
vt 0.906273 0.000000
vt 0.879116 0.271703
vt 0.879116 0.000000
vt 0.678183 0.696673
vt 0.678183 0.968376
vt 0.651026 0.968376
vt 0.651026 0.696673
vt 0.798689 0.000000
vt 0.798689 0.271703
vt 0.775667 0.271703
vt 0.775667 0.000000
vt 0.976978 0.696673
vt 0.976978 0.968376
vt 0.951396 0.968376
vt 0.951396 0.696673
vt 0.843812 0.696673
vt 0.843812 0.968376
vt 0.820790 0.968376
vt 0.820790 0.696673
vt 0.123029 0.965021
vt 0.123029 0.693319
vt 0.150185 0.693319
vt 0.150185 0.965021
vt 0.733028 0.696673
vt 0.733028 0.968376
vt 0.705871 0.968376
vt 0.705871 0.696673
vt 0.175767 0.693319
vt 0.175767 0.965021
vt 0.801211 0.968376
vt 0.801211 0.696673
vt 0.924239 0.968376
vt 0.924239 0.696673
vt 0.068183 0.965021
vt 0.068183 0.693319
vt 0.095340 0.693319
vt 0.095340 0.965021
vt 0.896551 0.968376
vt 0.896551 0.696673
vt 0.954877 0.000000
vt 0.954877 0.271703
vt 0.781632 0.696673
vt 0.781632 0.968376
vt 0.758610 0.968376
vt 0.758610 0.696673
vt 0.974456 0.000000
vt 0.974456 0.271703
vt 0.042602 0.965021
vt 0.042602 0.693319
vt 0.000000 0.965021
vt 0.000000 0.693319
vt 0.019579 0.693319
vt 0.019579 0.965021
vt 0.869394 0.696673
vt 0.869394 0.968376
vt 1.000000 0.696673
vt 1.000000 0.968376
vt 0.625444 0.968376
vt 0.625444 0.696673
vt 0.198789 0.693319
vt 0.198789 0.965021
vt 0.602422 0.968376
vt 0.602422 0.696673
vt 0.285213 0.101490
vt 0.269830 0.076650
vt 0.250251 0.055525
vt 0.227228 0.038927
vt 0.201647 0.027495
vt 0.174490 0.021666
vt 0.146801 0.021666
vt 0.119644 0.027495
vt 0.094063 0.038927
vt 0.071041 0.055525
vt 0.051462 0.076650
vt 0.036079 0.101490
vt 0.025483 0.129091
vt 0.020081 0.158392
vt 0.020081 0.188267
vt 0.000000 0.190401
vt 0.000000 0.156258
vt 0.006173 0.122772
vt 0.018283 0.091228
vt 0.035864 0.062839
vt 0.058240 0.038696
vt 0.084551 0.019727
vt 0.113787 0.006661
vt 0.144823 0.000000
vt 0.176468 0.000000
vt 0.207504 0.006661
vt 0.236740 0.019727
vt 0.263052 0.038696
vt 0.285428 0.062838
vt 0.303008 0.091227
vn -1.0000 -0.0000 0.0000
vn 0.0000 0.9843 0.1766
vn -0.0000 0.9998 -0.0189
vn -0.0000 0.9769 -0.2135
vn -0.0000 0.9165 -0.4000
vn 0.0000 0.8208 -0.5711
vn 0.0000 0.6936 -0.7203
vn 0.0000 0.5398 -0.8418
vn 0.0000 0.3652 -0.9309
vn 0.0000 0.1766 -0.9843
vn -0.0000 -0.0189 -0.9998
vn -0.0000 -0.2135 -0.9769
vn 0.0000 -0.4000 -0.9165
vn 0.0000 -0.5711 -0.8208
vn 0.0000 -0.7203 -0.6936
vn -0.0000 -0.8418 -0.5398
vn -0.0000 -0.9309 -0.3652
vn -0.0000 -0.9843 -0.1766
vn 0.0000 -0.9998 0.0189
vn 0.0000 -0.9769 0.2136
vn 0.0000 -0.9165 0.4000
vn 0.0000 -0.8208 0.5712
vn 0.0000 -0.6936 0.7203
vn 0.0000 -0.5398 0.8418
vn 0.0000 -0.3652 0.9309
vn 0.0000 -0.1766 0.9843
vn 0.0000 0.0189 0.9998
vn 0.0000 0.2136 0.9769
vn 0.0000 0.4000 0.9165
vn 0.0000 0.5712 0.8208
vn 0.0000 0.7203 0.6936
vn 1.0000 0.0000 0.0000
vn 0.0000 0.8418 0.5398
vn 0.0000 0.9309 0.3652
vn -0.0000 0.2135 0.9769
vn 0.0000 -0.8208 0.5711
vn -0.0000 -0.2136 -0.9769
vn -0.0000 0.9769 -0.2136
vn 0.0000 -0.9769 0.2135
vn 0.0000 0.5711 0.8208
vn 0.0000 -0.5712 -0.8208
vn 0.0000 0.8208 -0.5712
usemtl Material.001
s off
f 2/1/1 3/2/1 4/3/1 5/4/1 6/5/1 7/6/1 8/7/1 9/8/1 10/9/1 11/10/1 12/11/1 13/12/1 14/13/1 15/14/1 16/15/1 17/16/1 18/17/1 19/18/1 20/19/1 21/20/1 22/21/1 23/22/1 24/23/1 25/24/1 26/25/1 27/26/1 28/27/1 29/28/1 30/29/1 31/30/1 32/31/1 1/32/1
f 33/33/2 34/34/2 36/35/2 35/36/2
f 35/36/3 36/35/3 38/37/3 37/38/3
f 37/38/4 38/37/4 40/39/4 39/40/4
f 39/40/5 40/39/5 42/41/5 41/42/5
f 41/42/6 42/41/6 44/43/6 43/44/6
f 43/44/7 44/43/7 46/45/7 45/46/7
f 45/47/8 46/48/8 48/49/8 47/50/8
f 47/50/9 48/49/9 50/51/9 49/52/9
f 49/52/10 50/51/10 52/53/10 51/54/10
f 51/54/11 52/53/11 54/55/11 53/56/11
f 53/56/12 54/55/12 56/57/12 55/58/12
f 55/58/13 56/57/13 58/59/13 57/60/13
f 57/60/14 58/59/14 60/61/14 59/62/14
f 59/62/15 60/61/15 62/63/15 61/64/15
f 61/65/16 62/66/16 64/67/16 63/68/16
f 63/68/17 64/67/17 66/69/17 65/70/17
f 65/70/18 66/69/18 68/71/18 67/72/18
f 67/72/19 68/71/19 70/73/19 69/74/19
f 69/74/20 70/73/20 72/75/20 71/76/20
f 71/76/21 72/75/21 74/77/21 73/78/21
f 73/78/22 74/77/22 76/79/22 75/80/22
f 75/80/23 76/79/23 78/81/23 77/82/23
f 77/83/24 78/84/24 80/85/24 79/86/24
f 79/86/25 80/85/25 82/87/25 81/88/25
f 81/88/26 82/87/26 84/89/26 83/90/26
f 83/90/27 84/89/27 86/91/27 85/92/27
f 85/92/28 86/91/28 88/93/28 87/94/28
f 87/94/29 88/93/29 90/95/29 89/96/29
f 89/96/30 90/95/30 92/97/30 91/98/30
f 91/98/31 92/97/31 94/99/31 93/100/31
f 36/101/32 34/102/32 96/103/32 94/104/32 92/105/32 90/106/32 88/107/32 86/108/32 84/109/32 82/110/32 80/111/32 78/112/32 76/113/32 74/114/32 72/115/32 70/116/32 68/117/32 66/118/32 64/119/32 62/120/32 60/121/32 58/122/32 56/123/32 54/124/32 52/125/32 50/126/32 48/127/32 46/128/32 44/129/32 42/130/32 40/131/32 38/132/32
f 93/100/33 94/99/33 96/133/33 95/134/33
f 95/134/34 96/133/34 34/34/34 33/33/34
f 33/135/1 35/136/1 37/137/1 39/138/1 41/139/1 43/140/1 45/141/1 47/142/1 49/143/1 114/144/1 119/145/1 121/146/1 105/147/1 102/148/1 120/149/1 99/150/1 100/151/1 118/152/1 128/153/1 109/154/1 116/155/1 115/156/1 98/157/1 97/158/1 101/159/1 108/160/1 81/161/1 83/162/1 85/163/1 87/164/1 89/165/1 91/166/1 93/167/1 95/168/1
f 111/169/26 10/170/26 9/171/26 114/172/26
f 112/173/29 13/174/29 12/175/29 127/176/29
f 127/176/35 12/175/35 11/177/35 113/178/35
f 101/179/10 26/180/10 25/181/10 108/182/10
f 119/183/24 8/184/24 7/185/24 121/186/24
f 114/172/25 9/171/25 8/184/25 119/183/25
f 105/187/36 6/188/36 5/189/36 102/190/36
f 118/191/17 1/192/17 32/193/17 128/194/17
f 126/195/2 18/196/2 17/197/2 117/198/2
f 98/199/37 28/200/37 27/201/37 97/202/37
f 117/198/34 17/197/34 16/203/34 106/204/34
f 128/194/16 32/193/16 31/205/16 109/206/16
f 102/190/21 5/189/21 4/207/21 120/208/21
f 110/209/38 20/210/38 19/211/38 107/212/38
f 120/208/39 4/207/39 3/213/39 99/214/39
f 103/215/40 14/216/40 13/174/40 112/173/40
f 116/217/41 30/218/41 29/219/41 115/220/41
f 97/202/11 27/201/11 26/180/11 101/179/11
f 104/221/31 15/222/31 14/216/31 103/215/31
f 125/223/5 21/224/5 20/210/5 110/209/5
f 122/225/7 23/226/7 22/227/7 123/228/7
f 100/229/18 2/230/18 1/192/18 118/191/18
f 121/231/23 7/232/23 6/188/23 105/187/23
f 108/182/9 25/181/9 24/233/9 124/234/9
f 113/178/27 11/177/27 10/170/27 111/169/27
f 107/212/3 19/211/3 18/196/3 126/195/3
f 109/206/15 31/205/15 30/218/15 116/217/15
f 99/214/19 3/213/19 2/230/19 100/229/19
f 106/204/33 16/203/33 15/235/33 104/236/33
f 124/234/8 24/233/8 23/237/8 122/238/8
f 115/220/13 29/219/13 28/200/13 98/199/13
f 123/228/42 22/227/42 21/224/42 125/223/42
f 81/161/1 108/160/1 124/239/1 122/240/1 123/241/1 125/242/1 110/243/1 107/244/1 126/245/1 117/246/1 106/247/1 104/248/1 103/249/1 112/250/1 127/251/1 113/252/1 111/253/1 114/144/1 49/143/1 51/254/1 53/255/1 55/256/1 57/257/1 59/258/1 61/259/1 63/260/1 65/261/1 67/262/1 69/263/1 71/264/1 73/265/1 75/266/1 77/267/1 79/268/1
